<svg xmlns="http://www.w3.org/2000/svg" width="200" height="200" viewBox="0 0 200 200">
  <!-- Shield outline -->
  <path d="M100 15L35 40v60c0 45 30 75 65 85 35-10 65-40 65-85V40L100 15z" fill="#1A3A4A"/>
  
  <!-- Teal accent -->
  <path d="M100 15v170c35-10 65-40 65-85V40L100 15z" fill="#2A9D8F"/>
  
  <!-- Letter C -->
  <path d="M115 80c0-19.33-15.67-35-35-35s-35 15.67-35 35 15.67 35 35 35c10.5 0 19.95-4.61 26.46-11.96M80 55c13.81 0 25 11.19 25 25s-11.19 25-25 25-25-11.19-25-25 11.19-25 25-25z" stroke="white" stroke-width="10" fill="none"/>
</svg>
